<?xml version="1.0" standalone="no"?>
<svg xmlns:xlink="http://www.w3.org/1999/xlink" id="wave" style="transform:rotate(180deg); transition: 0.3s" viewBox="0 0 1440 490" version="1.1" xmlns="http://www.w3.org/2000/svg"><defs><linearGradient id="sw-gradient-0" x1="0" x2="0" y1="1" y2="0"><stop stop-color="rgba(187.371, 227.999, 212.86, 1)" offset="0%"/><stop stop-color="rgba(0, 36.881, 57.24, 1)" offset="100%"/></linearGradient></defs><path style="transform:translate(0, 0px); opacity:1" fill="url(#sw-gradient-0)" d="M0,245L120,204.2C240,163,480,82,720,57.2C960,33,1200,65,1440,73.5C1680,82,1920,65,2160,98C2400,131,2640,212,2880,204.2C3120,196,3360,98,3600,81.7C3840,65,4080,131,4320,196C4560,261,4800,327,5040,318.5C5280,310,5520,229,5760,220.5C6000,212,6240,278,6480,318.5C6720,359,6960,376,7200,359.3C7440,343,7680,294,7920,277.7C8160,261,8400,278,8640,302.2C8880,327,9120,359,9360,359.3C9600,359,9840,327,10080,277.7C10320,229,10560,163,10800,138.8C11040,114,11280,131,11520,122.5C11760,114,12000,82,12240,114.3C12480,147,12720,245,12960,261.3C13200,278,13440,212,13680,204.2C13920,196,14160,245,14400,269.5C14640,294,14880,294,15120,318.5C15360,343,15600,392,15840,408.3C16080,425,16320,408,16560,343C16800,278,17040,163,17160,106.2L17280,49L17280,490L17160,490C17040,490,16800,490,16560,490C16320,490,16080,490,15840,490C15600,490,15360,490,15120,490C14880,490,14640,490,14400,490C14160,490,13920,490,13680,490C13440,490,13200,490,12960,490C12720,490,12480,490,12240,490C12000,490,11760,490,11520,490C11280,490,11040,490,10800,490C10560,490,10320,490,10080,490C9840,490,9600,490,9360,490C9120,490,8880,490,8640,490C8400,490,8160,490,7920,490C7680,490,7440,490,7200,490C6960,490,6720,490,6480,490C6240,490,6000,490,5760,490C5520,490,5280,490,5040,490C4800,490,4560,490,4320,490C4080,490,3840,490,3600,490C3360,490,3120,490,2880,490C2640,490,2400,490,2160,490C1920,490,1680,490,1440,490C1200,490,960,490,720,490C480,490,240,490,120,490L0,490Z"/></svg>